<?xml version="1.0" standalone="no"?>
<svg xmlns:xlink="http://www.w3.org/1999/xlink" id="wave" style="transform:rotate(0deg); transition: 0.3s" viewBox="0 0 1440 100" version="1.1" xmlns="http://www.w3.org/2000/svg"><defs><linearGradient id="sw-gradient-0" x1="0" x2="0" y1="1" y2="0"><stop stop-color="rgba(248, 247, 244, 1)" offset="0%"/><stop stop-color="rgba(146, 158, 182, 1)" offset="100%"/></linearGradient></defs><path style="transform:translate(0, 0px); opacity:1" fill="url(#sw-gradient-0)" d="M0,60L34.3,65C68.6,70,137,80,206,83.3C274.3,87,343,83,411,76.7C480,70,549,60,617,50C685.7,40,754,30,823,23.3C891.4,17,960,13,1029,25C1097.1,37,1166,63,1234,66.7C1302.9,70,1371,50,1440,41.7C1508.6,33,1577,37,1646,45C1714.3,53,1783,67,1851,68.3C1920,70,1989,60,2057,50C2125.7,40,2194,30,2263,30C2331.4,30,2400,40,2469,41.7C2537.1,43,2606,37,2674,30C2742.9,23,2811,17,2880,13.3C2948.6,10,3017,10,3086,13.3C3154.3,17,3223,23,3291,30C3360,37,3429,43,3497,40C3565.7,37,3634,23,3703,20C3771.4,17,3840,23,3909,35C3977.1,47,4046,63,4114,58.3C4182.9,53,4251,27,4320,18.3C4388.6,10,4457,20,4526,28.3C4594.3,37,4663,43,4731,46.7C4800,50,4869,50,4903,50L4937.1,50L4937.1,100L4902.9,100C4868.6,100,4800,100,4731,100C4662.9,100,4594,100,4526,100C4457.1,100,4389,100,4320,100C4251.4,100,4183,100,4114,100C4045.7,100,3977,100,3909,100C3840,100,3771,100,3703,100C3634.3,100,3566,100,3497,100C3428.6,100,3360,100,3291,100C3222.9,100,3154,100,3086,100C3017.1,100,2949,100,2880,100C2811.4,100,2743,100,2674,100C2605.7,100,2537,100,2469,100C2400,100,2331,100,2263,100C2194.3,100,2126,100,2057,100C1988.6,100,1920,100,1851,100C1782.9,100,1714,100,1646,100C1577.1,100,1509,100,1440,100C1371.4,100,1303,100,1234,100C1165.7,100,1097,100,1029,100C960,100,891,100,823,100C754.3,100,686,100,617,100C548.6,100,480,100,411,100C342.9,100,274,100,206,100C137.1,100,69,100,34,100L0,100Z"/></svg>