<?xml version="1.0" standalone="no"?>
<svg xmlns:xlink="http://www.w3.org/1999/xlink" id="wave" style="transform:rotate(0deg); transition: 0.3s" viewBox="0 0 1440 140" version="1.1" xmlns="http://www.w3.org/2000/svg"><defs><linearGradient id="sw-gradient-0" x1="0" x2="0" y1="1" y2="0"><stop stop-color="rgba(248, 247, 244, 1)" offset="0%"/><stop stop-color="rgba(96, 239, 255, 1)" offset="100%"/></linearGradient></defs><path style="transform:translate(0, 0px); opacity:1" fill="url(#sw-gradient-0)" d="M0,70L80,77C160,84,320,98,480,86.3C640,75,800,37,960,39.7C1120,42,1280,84,1440,86.3C1600,89,1760,51,1920,49C2080,47,2240,79,2400,95.7C2560,112,2720,112,2880,105C3040,98,3200,84,3360,81.7C3520,79,3680,89,3840,86.3C4000,84,4160,70,4320,63C4480,56,4640,56,4800,63C4960,70,5120,84,5280,91C5440,98,5600,98,5760,102.7C5920,107,6080,117,6240,109.7C6400,103,6560,79,6720,67.7C6880,56,7040,56,7200,58.3C7360,61,7520,65,7680,67.7C7840,70,8000,70,8160,70C8320,70,8480,70,8640,72.3C8800,75,8960,79,9120,67.7C9280,56,9440,28,9600,35C9760,42,9920,84,10080,93.3C10240,103,10400,79,10560,60.7C10720,42,10880,28,11040,37.3C11200,47,11360,79,11440,95.7L11520,112L11520,140L11440,140C11360,140,11200,140,11040,140C10880,140,10720,140,10560,140C10400,140,10240,140,10080,140C9920,140,9760,140,9600,140C9440,140,9280,140,9120,140C8960,140,8800,140,8640,140C8480,140,8320,140,8160,140C8000,140,7840,140,7680,140C7520,140,7360,140,7200,140C7040,140,6880,140,6720,140C6560,140,6400,140,6240,140C6080,140,5920,140,5760,140C5600,140,5440,140,5280,140C5120,140,4960,140,4800,140C4640,140,4480,140,4320,140C4160,140,4000,140,3840,140C3680,140,3520,140,3360,140C3200,140,3040,140,2880,140C2720,140,2560,140,2400,140C2240,140,2080,140,1920,140C1760,140,1600,140,1440,140C1280,140,1120,140,960,140C800,140,640,140,480,140C320,140,160,140,80,140L0,140Z"/></svg>